M48
;Layer_Color=9474304
;FILE_FORMAT=2:5
INCH,LZ
;TYPE=PLATED
T1F00S00C0.01181
T2F00S00C0.03898
T3F00S00C0.03937
T4F00S00C0.04331
%
T01
X00845Y00875
X00835Y01025
X01395
X0126Y00825
X0045262Y0127238
X0019738Y0127762
T02
X021Y0032283
Y005
Y009
Y0107717
X0184409
Y009
Y005
Y0032283
X0035591
Y005
X001
Y0032283
T03
X0075Y0020512
X0085
X0095
X0105
X0115
X0125
X0135
X0145
Y0115
X0135
X0125
X0115
X0105
X0095
X0085
X0075
T04
X02Y014
X021
X019
X018
X017
X016
X015
X014
X013
X012
X011
X01
X009
X008
X007
X006
X005
X004
X003
X002
M30
