M48
;Layer_Color=9474304
;FILE_FORMAT=2:5
INCH,LZ
;TYPE=PLATED
T1F00S00C0.01181
T2F00S00C0.03898
T3F00S00C0.03937
T4F00S00C0.04331
%
T01
X0195449Y0104051
X01756Y01061
X01496Y00827
X0116Y00475
X01125Y00375
X0115Y00275
Y0022
X01285Y00175
X0087Y0012
X0101Y00405
X0093Y00575
X0048Y0098
X00342Y01029
X0038Y0109
X0029Y0117
X0021
X0012Y0109
X00121Y01035
X0025Y0103
X0007Y0093
T02
X019Y003
Y0047717
X0164409
Y003
X0045
Y0047717
X001941
Y003
T03
X0075Y0011102
X0134055
Y0020945
Y0030787
Y004063
Y0050472
Y0060315
Y0070157
Y008
X0075
Y0070157
Y0060315
Y0050472
Y004063
Y0030787
Y0020945
T04
X0045Y0065
Y0075
X005Y0105
Y0115
Y0125
X016
Y0115
Y0105
X0165Y0075
Y0065
M30
