G04*
G04 #@! TF.GenerationSoftware,Altium Limited,Altium Designer,21.7.2 (23)*
G04*
G04 Layer_Color=8388736*
%FSLAX44Y44*%
%MOMM*%
G71*
G04*
G04 #@! TF.SameCoordinates,B2BB7BCA-1F70-4AC3-A92F-25512046CEB7*
G04*
G04*
G04 #@! TF.FilePolarity,Negative*
G04*
G01*
G75*
%ADD15R,1.4000X1.3000*%
%ADD16R,1.3400X0.7400*%
%ADD17C,1.8000*%
%ADD18C,1.6980*%
%ADD19R,1.6980X1.6980*%
%ADD20R,1.7000X1.7000*%
%ADD21C,1.7000*%
D15*
X459740Y269580D02*
D03*
Y248580D02*
D03*
D16*
X480060Y248790D02*
D03*
Y264290D02*
D03*
D17*
X127000Y317500D02*
D03*
Y292100D02*
D03*
Y266700D02*
D03*
X406400D02*
D03*
Y292100D02*
D03*
Y317500D02*
D03*
X114300Y203200D02*
D03*
Y177800D02*
D03*
X419100Y203200D02*
D03*
Y177800D02*
D03*
D18*
X49300Y76200D02*
D03*
X114300D02*
D03*
Y121200D02*
D03*
X417600Y76200D02*
D03*
X482600D02*
D03*
Y121200D02*
D03*
D19*
X49300D02*
D03*
X417600D02*
D03*
D20*
X190500Y203200D02*
D03*
D21*
Y178200D02*
D03*
Y153200D02*
D03*
Y128200D02*
D03*
Y103200D02*
D03*
Y78200D02*
D03*
Y53200D02*
D03*
Y28200D02*
D03*
X340500D02*
D03*
Y53200D02*
D03*
Y78200D02*
D03*
Y103200D02*
D03*
Y128200D02*
D03*
Y153200D02*
D03*
Y178200D02*
D03*
Y203200D02*
D03*
M02*
