G04*
G04 #@! TF.GenerationSoftware,Altium Limited,Altium Designer,21.9.2 (33)*
G04*
G04 Layer_Color=65535*
%FSLAX44Y44*%
%MOMM*%
G71*
G04*
G04 #@! TF.SameCoordinates,280C80EB-3C15-4CDB-98EB-7ABCAFA8023B*
G04*
G04*
G04 #@! TF.FilePolarity,Positive*
G04*
G01*
G75*
%ADD10C,0.1270*%
%ADD11C,0.1500*%
%ADD12C,0.2540*%
D10*
X518450Y251100D02*
G03*
X518450Y251100I-17550J0D01*
G01*
Y104500D02*
G03*
X518450Y104500I-17550J0D01*
G01*
X75450D02*
G03*
X75450Y104500I-17550J0D01*
G01*
X470950Y241100D02*
Y261100D01*
X480900Y221150D02*
X520900D01*
X530850Y241100D02*
Y261100D01*
X480900Y281050D02*
X520900D01*
X470950Y94500D02*
Y114500D01*
X480900Y74550D02*
X520900D01*
X530850Y94500D02*
Y114500D01*
X480900Y134450D02*
X520900D01*
X27950Y94500D02*
Y114500D01*
X37900Y74550D02*
X77900D01*
X87850Y94500D02*
Y114500D01*
X37900Y134450D02*
X77900D01*
X120500Y12100D02*
X440500D01*
Y332100D01*
X120500D02*
X440500D01*
X120500Y12100D02*
Y332100D01*
X129540Y109250D02*
X139700D01*
X137160Y106710D02*
X139700Y109250D01*
X137160Y111790D02*
X139700Y109250D01*
X129540Y128300D02*
X139700D01*
X137160Y125760D02*
X139700Y128300D01*
X137160Y130840D02*
X139700Y128300D01*
X129540Y147350D02*
X139700D01*
X137160Y144810D02*
X139700Y147350D01*
X137160Y149890D02*
X139700Y147350D01*
X129540Y166400D02*
X139700D01*
X137160Y163860D02*
X139700Y166400D01*
X137160Y168940D02*
X139700Y166400D01*
X129540Y185450D02*
X139700D01*
X137160Y182910D02*
X139700Y185450D01*
X137160Y187990D02*
X139700Y185450D01*
X129540Y204500D02*
X139700D01*
X137160Y201960D02*
X139700Y204500D01*
X137160Y207040D02*
X139700Y204500D01*
X129540Y223550D02*
X139700D01*
X137160Y221010D02*
X139700Y223550D01*
X137160Y226090D02*
X139700Y223550D01*
X129540Y242600D02*
X139700D01*
X137160Y240060D02*
X139700Y242600D01*
X137160Y245140D02*
X139700Y242600D01*
D11*
X261850Y323947D02*
X268514D01*
X265182D01*
Y313950D01*
X276845Y323947D02*
X273513D01*
X271847Y322281D01*
Y315616D01*
X273513Y313950D01*
X276845D01*
X278511Y315616D01*
Y322281D01*
X276845Y323947D01*
X281843Y313950D02*
Y323947D01*
X286842D01*
X288508Y322281D01*
Y318948D01*
X286842Y317282D01*
X281843D01*
X195350Y71380D02*
Y74712D01*
Y73046D01*
X185353D01*
X187019Y71380D01*
D12*
X504379Y299909D02*
X502379Y301908D01*
X498381D01*
X496381Y299909D01*
Y291911D01*
X498381Y289912D01*
X502379D01*
X504379Y291911D01*
X496381Y153318D02*
Y141322D01*
X502379D01*
X504379Y143321D01*
Y145321D01*
X502379Y147320D01*
X496381D01*
X502379D01*
X504379Y149319D01*
Y151319D01*
X502379Y153318D01*
X496381D01*
X53151Y141322D02*
Y149319D01*
X57150Y153318D01*
X61149Y149319D01*
Y141322D01*
Y147320D01*
X53151D01*
M02*
