G04*
G04 #@! TF.GenerationSoftware,Altium Limited,Altium Designer,21.9.2 (33)*
G04*
G04 Layer_Physical_Order=1*
G04 Layer_Color=255*
%FSLAX44Y44*%
%MOMM*%
G71*
G04*
G04 #@! TF.SameCoordinates,B3731582-8854-422E-90CF-DCE9F0E77284*
G04*
G04*
G04 #@! TF.FilePolarity,Positive*
G04*
G01*
G75*
%ADD18C,0.3048*%
%ADD19C,1.4980*%
%ADD20R,1.4980X1.4980*%
%ADD21R,1.5000X1.5000*%
%ADD22C,1.5000*%
%ADD23C,1.6000*%
%ADD24C,0.6000*%
D18*
X236220Y200660D02*
X326390D01*
X339090Y213360D02*
Y262890D01*
X326390Y200660D02*
X339090Y213360D01*
Y262890D02*
X368300Y292100D01*
X320040Y209550D02*
Y269240D01*
X342900Y292100D01*
X170180Y283210D02*
Y337023D01*
X25400Y127000D02*
Y138430D01*
X170180Y283210D01*
Y337023D02*
X177800Y344643D01*
Y355600D01*
X214630Y222250D02*
X236220Y200660D01*
D19*
X533400Y273600D02*
D03*
Y228600D02*
D03*
X468400D02*
D03*
X533400Y127000D02*
D03*
Y82000D02*
D03*
X468400D02*
D03*
X90400Y127000D02*
D03*
Y82000D02*
D03*
X25400D02*
D03*
D20*
X468400Y273600D02*
D03*
Y127000D02*
D03*
X25400D02*
D03*
D21*
X190500Y52100D02*
D03*
D22*
X215900D02*
D03*
X368300D02*
D03*
X342900D02*
D03*
X317500D02*
D03*
X292100D02*
D03*
X266700D02*
D03*
X241300D02*
D03*
X368300Y292100D02*
D03*
X342900D02*
D03*
X317500D02*
D03*
X292100D02*
D03*
X266700D02*
D03*
X241300D02*
D03*
X215900D02*
D03*
X190500D02*
D03*
D23*
X50800Y355600D02*
D03*
X76200D02*
D03*
X101600D02*
D03*
X127000D02*
D03*
X152400D02*
D03*
X177800D02*
D03*
X203200D02*
D03*
X228600D02*
D03*
X254000D02*
D03*
X279400D02*
D03*
X304800D02*
D03*
X330200D02*
D03*
X355600D02*
D03*
X381000D02*
D03*
X406400D02*
D03*
X431800D02*
D03*
X457200D02*
D03*
X482600D02*
D03*
X508000D02*
D03*
X533400D02*
D03*
D24*
X114966Y323184D02*
D03*
X50134Y324516D02*
D03*
X354330Y260350D02*
D03*
X214630Y222250D02*
D03*
X320040Y209550D02*
D03*
X212090Y260350D02*
D03*
M02*
