G04*
G04 #@! TF.GenerationSoftware,Altium Limited,Altium Designer,21.7.2 (23)*
G04*
G04 Layer_Physical_Order=1*
G04 Layer_Color=255*
%FSLAX44Y44*%
%MOMM*%
G71*
G04*
G04 #@! TF.SameCoordinates,F696B693-9937-4AF9-BD54-0FAC2BC342AB*
G04*
G04*
G04 #@! TF.FilePolarity,Positive*
G04*
G01*
G75*
%ADD13R,1.2000X1.1000*%
%ADD14R,1.3000X0.7000*%
%ADD22C,0.7620*%
%ADD23C,0.3048*%
%ADD24C,1.6000*%
%ADD25C,1.4980*%
%ADD26R,1.4980X1.4980*%
%ADD27R,1.5000X1.5000*%
%ADD28C,1.5000*%
%ADD29C,0.6000*%
D13*
X459740Y269580D02*
D03*
Y248580D02*
D03*
D14*
X480060Y248790D02*
D03*
Y264290D02*
D03*
D22*
X496440D01*
X446110Y269580D02*
X459740D01*
X446024Y269494D02*
X446110Y269580D01*
D23*
X479850Y248580D02*
X480060Y248790D01*
X459740Y248580D02*
X479850D01*
X144780Y100330D02*
X180340Y64770D01*
X144780Y100330D02*
Y233895D01*
X127000Y251675D02*
Y266700D01*
Y251675D02*
X144780Y233895D01*
X111760Y243840D02*
Y276860D01*
X127000Y292100D01*
X111760Y243840D02*
X134620Y220980D01*
Y81280D02*
Y220980D01*
Y81280D02*
X176530Y39370D01*
X417600Y121200D02*
X419477Y123076D01*
X427877D01*
X434340Y129540D01*
Y264160D01*
X406400Y292100D02*
X434340Y264160D01*
X379984Y210058D02*
X406400Y236474D01*
Y266700D01*
X176530Y114300D02*
X187630Y103200D01*
X176530Y134620D02*
X182880Y140970D01*
X176530Y114300D02*
Y134620D01*
X182880Y140970D02*
X231140D01*
X243840Y95250D02*
X285750D01*
X210890Y128200D02*
X243840Y95250D01*
X190500Y128200D02*
X210890D01*
X190500Y78200D02*
X278860D01*
X294640Y93980D01*
X256540Y102870D02*
X306870Y153200D01*
X340500D01*
X180340Y64770D02*
X287020D01*
X292100Y69850D01*
X176530Y39370D02*
X275590D01*
X292100Y55880D01*
X187630Y103200D02*
X190500D01*
X231140Y140970D02*
X236220Y146050D01*
X411634Y127166D02*
X417600Y121200D01*
X294640Y93980D02*
Y120650D01*
D24*
X127000Y317500D02*
D03*
Y292100D02*
D03*
Y266700D02*
D03*
X406400D02*
D03*
Y292100D02*
D03*
Y317500D02*
D03*
X419100Y165100D02*
D03*
Y190500D02*
D03*
X114300Y165100D02*
D03*
Y190500D02*
D03*
D25*
X49300Y76200D02*
D03*
X114300D02*
D03*
Y121200D02*
D03*
X417600Y76200D02*
D03*
X482600D02*
D03*
Y121200D02*
D03*
D26*
X49300D02*
D03*
X417600D02*
D03*
D27*
X190500Y203200D02*
D03*
D28*
Y178200D02*
D03*
Y153200D02*
D03*
Y128200D02*
D03*
Y103200D02*
D03*
Y78200D02*
D03*
Y53200D02*
D03*
Y28200D02*
D03*
X340500D02*
D03*
Y53200D02*
D03*
Y78200D02*
D03*
Y103200D02*
D03*
Y128200D02*
D03*
Y153200D02*
D03*
Y178200D02*
D03*
Y203200D02*
D03*
D29*
X496440Y264290D02*
D03*
X446024Y269494D02*
D03*
X121920Y248920D02*
D03*
X17780Y236220D02*
D03*
X96520Y276860D02*
D03*
X73660Y297180D02*
D03*
X53340D02*
D03*
X63500Y261620D02*
D03*
X86868Y261366D02*
D03*
X30734Y262890D02*
D03*
X30480Y276860D02*
D03*
X379984Y210058D02*
D03*
X256540Y102870D02*
D03*
X236220Y146050D02*
D03*
X292100Y55880D02*
D03*
Y69850D02*
D03*
X294640Y120650D02*
D03*
X326390Y44450D02*
D03*
X220980Y30480D02*
D03*
X285750Y95250D02*
D03*
M02*
