G04*
G04 #@! TF.GenerationSoftware,Altium Limited,Altium Designer,21.9.2 (33)*
G04*
G04 Layer_Color=16711935*
%FSLAX44Y44*%
%MOMM*%
G71*
G04*
G04 #@! TF.SameCoordinates,280C80EB-3C15-4CDB-98EB-7ABCAFA8023B*
G04*
G04*
G04 #@! TF.FilePolarity,Negative*
G04*
G01*
G75*
%ADD13C,1.6980*%
%ADD14R,1.6980X1.6980*%
%ADD15R,1.7000X1.7000*%
%ADD16C,1.7000*%
%ADD17C,1.8000*%
%ADD34R,0.7400X1.1400*%
%ADD35R,0.7400X1.3400*%
%ADD36R,1.6400X0.5900*%
D13*
X533400Y273600D02*
D03*
Y228600D02*
D03*
X468400D02*
D03*
X533400Y127000D02*
D03*
Y82000D02*
D03*
X468400D02*
D03*
X90400Y127000D02*
D03*
Y82000D02*
D03*
X25400D02*
D03*
D14*
X468400Y273600D02*
D03*
Y127000D02*
D03*
X25400D02*
D03*
D15*
X190500Y52100D02*
D03*
D16*
X215900D02*
D03*
X368300D02*
D03*
X342900D02*
D03*
X317500D02*
D03*
X292100D02*
D03*
X266700D02*
D03*
X241300D02*
D03*
X368300Y292100D02*
D03*
X342900D02*
D03*
X317500D02*
D03*
X292100D02*
D03*
X266700D02*
D03*
X241300D02*
D03*
X215900D02*
D03*
X190500D02*
D03*
D17*
X50800Y355600D02*
D03*
X76200D02*
D03*
X101600D02*
D03*
X127000D02*
D03*
X152400D02*
D03*
X177800D02*
D03*
X203200D02*
D03*
X228600D02*
D03*
X254000D02*
D03*
X279400D02*
D03*
X304800D02*
D03*
X330200D02*
D03*
X355600D02*
D03*
X381000D02*
D03*
X406400D02*
D03*
X431800D02*
D03*
X457200D02*
D03*
X482600D02*
D03*
X508000D02*
D03*
X533400D02*
D03*
D34*
X518780Y328930D02*
D03*
X532780D02*
D03*
D35*
X76330Y323850D02*
D03*
X60830D02*
D03*
X88770D02*
D03*
X104270D02*
D03*
D36*
X234400Y95250D02*
D03*
Y107950D02*
D03*
X336550Y95250D02*
D03*
Y107950D02*
D03*
X234400Y120650D02*
D03*
Y133350D02*
D03*
Y146050D02*
D03*
Y158750D02*
D03*
Y171450D02*
D03*
Y184150D02*
D03*
Y196850D02*
D03*
Y209550D02*
D03*
Y222250D02*
D03*
Y234950D02*
D03*
Y247650D02*
D03*
Y260350D02*
D03*
X336550Y120650D02*
D03*
Y133350D02*
D03*
Y146050D02*
D03*
Y158750D02*
D03*
Y171450D02*
D03*
Y184150D02*
D03*
Y196850D02*
D03*
Y209550D02*
D03*
Y222250D02*
D03*
Y234950D02*
D03*
Y247650D02*
D03*
Y260350D02*
D03*
M02*
