G04*
G04 #@! TF.GenerationSoftware,Altium Limited,Altium Designer,21.9.2 (33)*
G04*
G04 Layer_Physical_Order=4*
G04 Layer_Color=16711680*
%FSLAX44Y44*%
%MOMM*%
G71*
G04*
G04 #@! TF.SameCoordinates,B3731582-8854-422E-90CF-DCE9F0E77284*
G04*
G04*
G04 #@! TF.FilePolarity,Positive*
G04*
G01*
G75*
%ADD18C,0.3048*%
%ADD19C,1.4980*%
%ADD20R,1.4980X1.4980*%
%ADD21R,1.5000X1.5000*%
%ADD22C,1.5000*%
%ADD23C,1.6000*%
%ADD24C,0.6000*%
%ADD30R,0.6000X1.0000*%
%ADD31R,0.7000X1.3000*%
%ADD32R,1.5000X0.4500*%
%ADD33C,0.7620*%
D18*
X76200Y280685D02*
Y355600D01*
X76192Y280678D02*
X76200Y280685D01*
X88900Y283210D02*
Y323720D01*
X88770Y323850D02*
X88900Y323720D01*
Y283210D02*
X124460Y247650D01*
X234400D01*
X88900Y323980D02*
Y361950D01*
X88770Y323850D02*
X88900Y323980D01*
X81280Y369570D02*
X88900Y361950D01*
X58420Y369570D02*
X81280D01*
X53278Y364428D02*
X58420Y369570D01*
X53278Y358078D02*
Y364428D01*
X50800Y355600D02*
X53278Y358078D01*
X203200Y38100D02*
X215900Y25400D01*
X330200D01*
X342900Y38100D01*
X198120Y17780D02*
X347980D01*
X173990Y41910D02*
X198120Y17780D01*
X347980D02*
X368300Y38100D01*
X488950Y209550D02*
Y302260D01*
X468400Y189000D02*
X488950Y209550D01*
X468400Y127000D02*
Y189000D01*
X205740Y323850D02*
X373380D01*
X391160Y306070D01*
Y193040D02*
Y306070D01*
X229870Y316230D02*
X365760D01*
X216026Y292227D02*
Y302386D01*
X215900Y292100D02*
X216026Y292227D01*
Y302386D02*
X229870Y316230D01*
X190500Y308610D02*
X205740Y323850D01*
X128270Y345440D02*
X142240Y331470D01*
X438150D02*
X468400Y301220D01*
X142240Y331470D02*
X438150D01*
X336550Y158750D02*
X356870D01*
X391160Y193040D01*
X365760Y316230D02*
X382270Y299720D01*
Y199390D02*
Y299720D01*
X317500Y289560D02*
X332740Y274320D01*
X359410D01*
X365760Y267970D01*
X266700Y303530D02*
X270510Y307340D01*
X299720D01*
X306070Y300990D01*
X354330Y171450D02*
X382270Y199390D01*
X173990Y153670D02*
X217170Y196850D01*
X234400D01*
X173990Y41910D02*
Y153670D01*
X203200Y143510D02*
X218440Y158750D01*
X203200Y38100D02*
Y143510D01*
X215900Y52100D02*
Y138430D01*
X223520Y146050D01*
X241300Y52100D02*
X259080Y69880D01*
Y175260D01*
X318770Y234950D01*
X228600Y43180D02*
Y63500D01*
X250190Y85090D01*
Y129540D01*
X246380Y133350D02*
X250190Y129540D01*
X234400Y133350D02*
X246380D01*
X266700Y52100D02*
Y167640D01*
X321317Y222257D01*
X284480Y34290D02*
X292003Y41814D01*
X228600Y43180D02*
X237490Y34290D01*
X284480D01*
X318770Y234950D02*
X336550D01*
X246380Y184150D02*
X292100Y229870D01*
Y292100D01*
X251460Y213360D02*
Y281940D01*
X247650Y209550D02*
X251460Y213360D01*
X241300Y292100D02*
X251460Y281940D01*
X234400Y209550D02*
X247650D01*
X452120Y339090D02*
X488950Y302260D01*
X157480Y339090D02*
X452120D01*
X468400Y273600D02*
Y301220D01*
X152400Y344170D02*
X157480Y339090D01*
X152400Y344170D02*
Y355600D01*
X128270Y345440D02*
Y354330D01*
X127000Y355600D02*
X128270Y354330D01*
X214630Y222250D02*
X234400D01*
X320040Y209550D02*
X336550D01*
X365760Y198120D02*
Y267970D01*
X336550Y184150D02*
X351790D01*
X365760Y198120D01*
X317500Y289560D02*
Y292100D01*
X76192Y280678D02*
X121920Y234950D01*
X234400D01*
X190500Y292100D02*
Y308610D01*
X336550Y171450D02*
X354330D01*
X266700Y292100D02*
Y303530D01*
X306070Y264160D02*
Y300990D01*
Y264160D02*
X322580Y247650D01*
X336550D01*
X234400Y184150D02*
X246380D01*
X322580Y196850D02*
X336550D01*
X317500Y191770D02*
X322580Y196850D01*
X317500Y52100D02*
Y191770D01*
X368300Y38100D02*
Y52100D01*
X342900Y38100D02*
Y52100D01*
X218440Y158750D02*
X234400D01*
X292003Y52003D02*
X292100Y52100D01*
X292003Y41814D02*
Y52003D01*
X323850Y222250D02*
X336550D01*
X323843Y222257D02*
X323850Y222250D01*
X321317Y222257D02*
X323843D01*
X223520Y146050D02*
X234400D01*
X218440Y171450D02*
X234400D01*
X215907Y171458D02*
X218433D01*
X190500Y146050D02*
X215907Y171458D01*
X218433D02*
X218440Y171450D01*
X190500Y52100D02*
Y146050D01*
D19*
X533400Y273600D02*
D03*
Y228600D02*
D03*
X468400D02*
D03*
X533400Y127000D02*
D03*
Y82000D02*
D03*
X468400D02*
D03*
X90400Y127000D02*
D03*
Y82000D02*
D03*
X25400D02*
D03*
D20*
X468400Y273600D02*
D03*
Y127000D02*
D03*
X25400D02*
D03*
D21*
X190500Y52100D02*
D03*
D22*
X215900D02*
D03*
X368300D02*
D03*
X342900D02*
D03*
X317500D02*
D03*
X292100D02*
D03*
X266700D02*
D03*
X241300D02*
D03*
X368300Y292100D02*
D03*
X342900D02*
D03*
X317500D02*
D03*
X292100D02*
D03*
X266700D02*
D03*
X241300D02*
D03*
X215900D02*
D03*
X190500D02*
D03*
D23*
X50800Y355600D02*
D03*
X76200D02*
D03*
X101600D02*
D03*
X127000D02*
D03*
X152400D02*
D03*
X177800D02*
D03*
X203200D02*
D03*
X228600D02*
D03*
X254000D02*
D03*
X279400D02*
D03*
X304800D02*
D03*
X330200D02*
D03*
X355600D02*
D03*
X381000D02*
D03*
X406400D02*
D03*
X431800D02*
D03*
X457200D02*
D03*
X482600D02*
D03*
X508000D02*
D03*
X533400D02*
D03*
D24*
X114966Y323184D02*
D03*
X50134Y324516D02*
D03*
X354330Y260350D02*
D03*
X214630Y222250D02*
D03*
X320040Y209550D02*
D03*
X212090Y260350D02*
D03*
D30*
X518780Y328930D02*
D03*
X532780D02*
D03*
D31*
X76330Y323850D02*
D03*
X60830D02*
D03*
X88770D02*
D03*
X104270D02*
D03*
D32*
X234400Y95250D02*
D03*
Y107950D02*
D03*
X336550Y95250D02*
D03*
Y107950D02*
D03*
X234400Y120650D02*
D03*
Y133350D02*
D03*
Y146050D02*
D03*
Y158750D02*
D03*
Y171450D02*
D03*
Y184150D02*
D03*
Y196850D02*
D03*
Y209550D02*
D03*
Y222250D02*
D03*
Y234950D02*
D03*
Y247650D02*
D03*
Y260350D02*
D03*
X336550Y120650D02*
D03*
Y133350D02*
D03*
Y146050D02*
D03*
Y158750D02*
D03*
Y171450D02*
D03*
Y184150D02*
D03*
Y196850D02*
D03*
Y209550D02*
D03*
Y222250D02*
D03*
Y234950D02*
D03*
Y247650D02*
D03*
Y260350D02*
D03*
D33*
X104270Y323493D02*
X104580Y323184D01*
X114966D01*
X104270Y323493D02*
Y323850D01*
X50134Y324516D02*
X60520D01*
X60830Y323850D02*
Y324207D01*
X60520Y324516D02*
X60830Y324207D01*
X492760Y328930D02*
X518780D01*
X482600Y339090D02*
X492760Y328930D01*
X482600Y339090D02*
Y355600D01*
X533400Y329550D02*
Y355600D01*
X532780Y328930D02*
X533400Y329550D01*
X336550Y260350D02*
X354330D01*
X212090D02*
X234400D01*
M02*
