G04*
G04 #@! TF.GenerationSoftware,Altium Limited,Altium Designer,21.9.2 (33)*
G04*
G04 Layer_Physical_Order=2*
G04 Layer_Color=32768*
%FSLAX44Y44*%
%MOMM*%
G71*
G04*
G04 #@! TF.SameCoordinates,280C80EB-3C15-4CDB-98EB-7ABCAFA8023B*
G04*
G04*
G04 #@! TF.FilePolarity,Negative*
G04*
G01*
G75*
%ADD25C,1.0160*%
%ADD26C,1.1900*%
%ADD27C,1.2000*%
%ADD28C,1.3000*%
%ADD29C,0.5000*%
D25*
X-639Y7620D02*
G03*
X-639Y7612I639J0D01*
G01*
Y373218D02*
G03*
X-639Y373212I638J0D01*
G01*
X7886Y381743D02*
G03*
X-639Y373218I0J-8525D01*
G01*
X7892Y381743D02*
G03*
X7886Y381743I-3J-639D01*
G01*
X427996D02*
G03*
X427990Y381743I-6J-654D01*
G01*
X558435Y373218D02*
G03*
X549910Y381743I-8525J0D01*
G01*
X558435Y373210D02*
G03*
X558435Y373218I-640J8D01*
G01*
Y7612D02*
G03*
X558435Y7620I-551J8D01*
G01*
X7878Y-905D02*
G03*
X7886Y-905I4J639D01*
G01*
X7878D02*
G03*
X7886Y-905I4J2131D01*
G01*
X-639Y7612D02*
G03*
X7878Y-905I8525J8D01*
G01*
X549910D02*
G03*
X558435Y7612I0J8525D01*
G01*
X-639Y7620D02*
X-639Y373212D01*
X7886Y381743D02*
X7892Y381743D01*
X7886D02*
X7892D01*
X427990Y381743D01*
X7886Y-905D02*
X549910Y-905D01*
X7878D02*
X7886Y-905D01*
X558435Y373210D02*
X558435Y7620D01*
X427996Y381743D02*
X549910Y381743D01*
D26*
X533400Y273600D02*
D03*
X468400D02*
D03*
Y228600D02*
D03*
X533400Y127000D02*
D03*
X468400D02*
D03*
Y82000D02*
D03*
X90400Y127000D02*
D03*
X25400D02*
D03*
Y82000D02*
D03*
D27*
X190500Y52100D02*
D03*
X215900D02*
D03*
X368300D02*
D03*
X342900D02*
D03*
X317500D02*
D03*
X292100D02*
D03*
X266700D02*
D03*
X241300D02*
D03*
X368300Y292100D02*
D03*
X342900D02*
D03*
X317500D02*
D03*
X292100D02*
D03*
X266700D02*
D03*
X241300D02*
D03*
X215900D02*
D03*
X190500D02*
D03*
D28*
X50800Y355600D02*
D03*
X76200D02*
D03*
X127000D02*
D03*
X152400D02*
D03*
X177800D02*
D03*
X203200D02*
D03*
X254000D02*
D03*
X279400D02*
D03*
X304800D02*
D03*
X330200D02*
D03*
X381000D02*
D03*
X406400D02*
D03*
X431800D02*
D03*
X457200D02*
D03*
X508000D02*
D03*
X533400D02*
D03*
D29*
X114966Y323184D02*
D03*
X50134Y324516D02*
D03*
X214630Y222250D02*
D03*
X320040Y209550D02*
D03*
X212090Y260350D02*
D03*
M02*
